<?xml version="1.0" standalone="no"?>
<!DOCTYPE svg PUBLIC "-//W3C//DTD SVG 20010904//EN"
 "http://www.w3.org/TR/2001/REC-SVG-20010904/DTD/svg10.dtd">
<svg version="1.0" xmlns="http://www.w3.org/2000/svg"
 width="886.000000pt" height="886.000000pt" viewBox="0 0 886.000000 886.000000"
 preserveAspectRatio="xMidYMid meet">
<metadata>
Created by potrace 1.14, written by Peter Selinger 2001-2017
</metadata>
<g transform="translate(0.000000,886.000000) scale(0.100000,-0.100000)"
fill="#000000" stroke="none">
<path d="M3885 8262 c-16 -2 -34 -8 -39 -13 -6 -5 -27 -9 -48 -9 -24 0 -58
-11 -91 -29 -28 -16 -69 -33 -89 -36 -20 -4 -44 -16 -54 -26 -9 -10 -23 -19
-29 -19 -7 0 -46 -15 -86 -34 -41 -18 -90 -37 -109 -41 -19 -4 -52 -16 -72
-26 -32 -17 -38 -24 -38 -53 0 -27 -7 -38 -47 -66 -83 -60 -181 -159 -176
-178 5 -21 -43 -132 -57 -132 -5 0 -10 -6 -10 -13 0 -8 -11 -24 -25 -37 -13
-13 -50 -57 -82 -99 -31 -42 -74 -100 -96 -128 -21 -29 -56 -85 -76 -125 -21
-40 -47 -89 -58 -108 -33 -54 -123 -348 -123 -400 0 -11 5 -29 12 -40 10 -15
10 -29 0 -66 -8 -29 -9 -50 -3 -58 6 -7 5 -20 -4 -35 -12 -24 -4 -66 17 -81 4
-3 4 -29 -1 -56 -4 -28 -4 -59 0 -70 3 -10 3 -23 0 -29 -4 -5 -4 -23 -1 -40 6
-28 7 -27 14 18 5 26 13 47 18 47 6 0 7 -13 2 -32 -4 -18 -7 -40 -7 -48 0 -8
-4 -21 -9 -27 -11 -13 -10 -188 1 -245 0 -4 10 -9 20 -13 20 -6 19 -32 -1 -46
-4 -3 -5 -33 -2 -68 5 -43 10 -58 16 -49 7 9 8 7 3 -7 -12 -31 -7 -69 11 -82
8 -6 15 -14 14 -17 -4 -17 14 -95 30 -126 9 -19 20 -54 24 -77 5 -35 3 -43 -9
-43 -8 0 -23 -5 -33 -11 -13 -8 -39 -8 -92 -1 l-75 10 -52 -53 c-63 -65 -83
-122 -90 -253 -7 -126 6 -187 88 -392 94 -236 128 -302 162 -311 35 -9 67 28
67 80 0 50 10 81 25 81 15 0 25 -54 13 -72 -4 -7 -8 -30 -8 -50 0 -39 -16 -84
-37 -106 -10 -10 -10 -19 -3 -33 7 -13 8 -31 1 -55 -13 -47 -7 -59 48 -97 37
-25 59 -32 108 -35 59 -4 62 -6 68 -33 4 -16 13 -36 22 -44 8 -8 10 -15 4 -15
-6 0 -7 -9 -1 -27 8 -24 16 -64 19 -96 1 -5 4 -6 9 -4 4 3 8 -8 9 -23 1 -16
11 -46 23 -67 11 -21 20 -44 20 -51 0 -8 6 -28 14 -45 19 -41 56 -156 56 -174
0 -7 5 -13 10 -13 6 0 10 -9 10 -21 0 -26 13 -51 45 -85 14 -15 28 -39 32 -53
3 -14 12 -35 20 -47 7 -12 16 -39 18 -60 11 -87 14 -97 38 -123 14 -14 32 -40
41 -58 9 -17 25 -38 36 -46 14 -9 18 -20 14 -32 -4 -9 -3 -20 2 -24 5 -3 23
-33 39 -66 17 -33 42 -76 56 -95 50 -65 44 -114 -25 -229 -51 -84 -85 -147
-97 -178 -9 -25 -6 -24 23 11 18 22 44 59 58 82 54 91 81 125 93 117 7 -4 20
-6 30 -5 13 3 17 -4 17 -28 0 -17 4 -39 9 -49 6 -10 11 -29 13 -43 2 -14 8
-32 14 -39 14 -18 31 -66 37 -104 3 -16 9 -38 12 -47 10 -25 -21 -24 -34 1 -6
10 -28 81 -49 156 -21 75 -42 135 -47 133 -6 -2 -41 -72 -79 -156 -39 -84 -77
-159 -85 -167 -44 -40 -58 -59 -120 -170 -38 -66 -110 -187 -161 -270 -51 -82
-126 -211 -168 -285 -41 -74 -80 -138 -86 -142 -6 -4 -30 -8 -52 -8 -31 0 -51
-8 -79 -30 -20 -16 -41 -27 -46 -25 -4 3 -13 -3 -18 -14 -15 -27 -14 -31 6
-24 13 5 15 2 10 -11 -4 -10 -7 -20 -7 -22 0 -2 -9 -4 -19 -4 -10 0 -22 -7
-25 -16 -9 -22 -8 -24 9 -18 17 7 22 -31 5 -41 -6 -3 -10 -15 -10 -27 0 -18
-14 -51 -42 -98 -4 -8 -15 -30 -23 -48 -9 -17 -20 -32 -25 -32 -6 0 -10 -6
-10 -13 0 -13 -10 -28 -58 -87 -29 -36 -23 -100 9 -100 31 0 34 -29 9 -77 -25
-47 -43 -54 -60 -23 -15 27 -36 25 -56 -5 -20 -30 -40 -32 -54 -5 -14 27 -34
25 -54 -5 -21 -32 -33 -32 -48 0 -15 33 -34 32 -53 -5 -19 -37 -32 -38 -47 -5
-16 35 -33 31 -52 -10 -21 -45 -31 -44 -47 2 l-12 37 -18 -23 c-11 -13 -19
-29 -19 -36 0 -7 -6 -18 -13 -24 -11 -8 -16 -5 -25 15 -7 14 -12 31 -12 39 0
8 -5 15 -11 15 -9 0 -17 -16 -44 -85 -7 -18 -8 -18 -21 10 -7 17 -13 40 -14
53 0 43 -18 22 -36 -44 -16 -61 -19 -65 -32 -48 -20 27 -9 173 18 243 21 53
21 69 1 57 -17 -11 -53 -149 -73 -273 -7 -46 -16 -83 -19 -83 -19 0 -30 199
-14 251 5 15 4 21 -2 14 -19 -19 -45 -150 -51 -249 -5 -110 -14 -108 -32 7 -7
43 -16 75 -19 71 -3 -3 -8 -58 -11 -122 -5 -114 -6 -116 -18 -74 -18 59 -32
44 -33 -36 0 -57 -2 -63 -11 -42 -11 24 -11 24 -18 -15 -4 -22 -4 -50 1 -63 6
-15 5 -31 -2 -44 -16 -29 8 -103 28 -87 10 9 13 7 13 -9 0 -11 -4 -22 -9 -24
-5 -2 -7 -15 -4 -30 3 -15 9 -25 13 -23 5 3 12 1 15 -5 4 -7 80 -10 216 -9
171 1 211 3 216 15 7 18 29 18 37 -1 9 -25 32 -17 52 20 23 43 33 44 41 5 3
-16 9 -30 14 -30 10 0 41 45 58 84 10 24 14 27 22 15 5 -7 9 -30 9 -49 l1 -35
24 28 c13 15 29 45 35 67 6 22 15 40 20 40 14 0 23 -46 17 -86 -5 -30 -4 -34
8 -24 14 12 45 70 65 125 10 27 12 28 22 11 10 -17 6 -69 -8 -126 -12 -45 43
36 68 102 47 120 62 40 19 -102 -10 -33 -9 -34 5 -15 9 11 36 62 60 113 25 50
49 92 54 92 19 0 10 -67 -20 -155 -34 -101 -33 -95 -22 -95 8 0 56 96 102 207
12 29 29 58 38 65 14 12 15 7 9 -42 -3 -30 -19 -94 -35 -142 -26 -78 -27 -88
-13 -88 13 0 29 31 61 112 51 136 70 177 81 184 18 11 8 -77 -21 -177 -35
-123 -35 -119 -11 -119 15 0 24 15 39 62 37 113 84 228 93 228 20 0 6 -80 -47
-268 -6 -21 -4 -23 21 -20 25 3 30 12 67 113 22 61 44 114 49 119 16 18 9 -76
-11 -154 -11 -41 -20 -76 -20 -78 0 -2 14 -2 31 0 28 3 33 9 60 78 40 99 53
111 45 39 -3 -30 -9 -69 -12 -87 -6 -31 -6 -32 29 -32 33 0 37 3 53 45 22 59
38 59 30 0 l-7 -45 354 0 354 0 16 93 c36 202 48 260 57 277 6 10 10 33 10 51
0 38 34 92 69 111 13 7 35 31 49 52 23 36 108 122 153 154 23 16 89 44 89 37
0 -2 -24 -20 -52 -40 -96 -64 -116 -81 -177 -151 -33 -38 -67 -75 -76 -82 -8
-7 -15 -21 -15 -32 0 -11 -7 -41 -16 -66 -15 -45 -32 -160 -38 -264 -2 -25 -7
-66 -11 -92 l-8 -48 49 0 50 0 18 93 c10 50 23 100 28 111 9 17 11 17 26 2 12
-12 16 -33 14 -83 -1 -38 -5 -80 -8 -95 l-6 -28 61 0 c48 0 61 3 61 15 0 8 5
15 10 15 6 0 10 -7 10 -15 0 -11 13 -15 54 -15 54 0 55 0 66 38 16 47 22 53
40 42 9 -5 13 -22 12 -44 l-3 -36 56 0 c42 0 55 4 55 15 0 8 9 19 19 24 16 9
20 7 25 -14 6 -23 11 -25 62 -25 30 0 64 5 75 10 13 7 19 7 19 0 0 -6 27 -10
65 -10 51 0 65 3 65 15 0 8 7 15 15 15 9 0 18 -7 21 -15 5 -11 22 -15 65 -15
54 0 59 2 65 25 4 14 9 24 12 21 3 -3 12 0 20 6 13 11 14 8 8 -20 l-8 -32 60
0 59 0 13 48 c16 59 16 58 36 38 12 -12 15 -27 11 -52 l-6 -34 54 0 54 0 21
73 c27 91 28 95 29 78 1 -11 5 -10 15 5 13 17 14 14 10 -36 -2 -30 -6 -70 -9
-88 l-4 -32 53 0 53 0 23 103 c12 56 29 114 37 130 34 67 42 6 19 -145 l-13
-88 53 0 52 0 7 43 c4 23 18 89 31 147 21 89 28 106 44 107 17 2 20 -5 20 -40
0 -23 -7 -85 -15 -137 -20 -129 -22 -120 33 -120 l49 0 17 98 c22 121 49 208
64 204 7 -1 12 2 12 8 0 5 4 10 10 10 13 0 5 -151 -14 -238 -9 -40 -16 -75
-16 -78 0 -2 21 -4 48 -4 l47 0 18 88 c10 48 28 120 40 160 18 61 25 72 42 70
18 -3 20 -10 18 -77 -1 -40 -9 -107 -17 -148 -9 -41 -16 -79 -16 -84 0 -5 19
-9 43 -9 l42 0 39 159 c35 146 40 159 62 164 20 3 25 -1 30 -28 6 -35 -6 -133
-30 -235 l-14 -60 43 0 c41 0 44 2 50 33 4 17 17 68 30 112 13 44 29 102 36
128 11 43 14 48 38 45 22 -3 26 -9 29 -38 3 -31 -25 -194 -44 -257 -6 -21 -3
-23 38 -23 l45 0 13 58 c7 31 25 99 41 151 16 51 29 104 29 117 0 28 10 35 38
27 20 -5 22 -12 22 -68 0 -37 -12 -109 -29 -174 l-29 -111 49 0 c45 0 49 2 49
24 0 24 60 245 81 297 13 34 56 45 64 17 9 -28 -5 -121 -36 -235 l-27 -103 47
0 48 0 6 52 c3 29 24 109 46 177 23 69 41 129 41 134 0 13 23 32 44 35 18 3
19 -2 13 -85 -3 -48 -17 -126 -30 -173 -44 -152 -46 -140 16 -140 l54 0 5 72
c3 40 13 93 21 118 9 25 27 83 41 130 17 57 33 89 47 98 11 7 24 10 27 7 18
-17 3 -155 -26 -255 -16 -58 -33 -120 -37 -138 l-7 -32 59 0 59 0 1 76 c1 57
11 106 38 193 50 161 52 164 82 178 l26 12 -6 -97 c-4 -64 -15 -131 -35 -197
-16 -55 -32 -115 -35 -132 l-6 -33 67 0 67 0 -3 92 c-3 81 0 105 26 188 17 52
33 108 36 124 9 37 36 77 47 70 5 -3 9 0 9 5 0 6 5 11 10 11 17 0 11 -133 -10
-211 -11 -41 -29 -112 -40 -159 -12 -47 -23 -93 -26 -102 -5 -17 12 -18 259
-18 225 0 266 2 271 15 3 8 12 12 21 9 10 -4 15 0 16 12 0 13 4 10 11 -9 10
-27 12 -28 76 -25 l66 3 8 37 c7 32 38 78 53 78 3 0 5 -27 5 -60 l0 -60 60 0
c59 0 61 1 67 30 3 17 14 35 24 41 15 7 17 14 9 34 -8 21 -7 25 9 25 24 0 31
-19 31 -81 l0 -49 53 0 c54 0 54 0 65 37 6 21 14 56 18 78 3 22 11 46 16 52 6
7 8 21 6 31 -5 18 0 90 21 302 23 223 51 578 51 635 0 33 -5 67 -10 75 -8 12
-10 12 -10 1 0 -9 -10 -3 -25 13 -14 15 -25 25 -25 23 0 -10 -50 -435 -60
-512 -28 -218 -75 -474 -89 -488 -4 -4 -18 3 -30 14 -27 25 -28 -5 13 385 58
547 68 714 41 714 -8 0 -15 4 -15 9 0 4 -10 8 -22 7 -22 -1 -24 -8 -40 -156
-44 -400 -102 -814 -132 -940 -10 -43 -17 -55 -32 -56 -10 0 -24 3 -30 8 -15
11 -8 133 15 248 11 52 22 138 26 190 3 52 15 169 25 260 22 187 42 464 34
484 -3 7 -20 18 -39 23 -32 10 -34 9 -39 -16 -6 -28 -20 -160 -36 -341 -6 -63
-23 -194 -39 -290 -16 -96 -34 -227 -40 -290 -7 -63 -18 -140 -25 -170 -8 -30
-17 -72 -20 -92 -5 -29 -12 -38 -26 -38 -11 0 -20 -7 -20 -15 0 -25 -19 -17
-26 11 -11 41 3 160 31 269 18 71 28 145 35 255 8 149 18 236 39 346 14 75 34
381 26 420 -3 19 -11 34 -17 34 -6 0 -20 7 -30 17 -10 9 -21 13 -25 9 -4 -4
-10 -67 -14 -139 -4 -73 -9 -139 -12 -147 -4 -8 -11 -71 -16 -140 -9 -109 -56
-371 -76 -422 -4 -10 -14 -18 -23 -18 -14 0 -14 -1 -1 -12 13 -11 14 -35 8
-153 -6 -113 -14 -163 -41 -260 -27 -100 -36 -120 -50 -117 -22 4 -23 -14 -3
-35 21 -21 14 -26 -20 -13 -26 10 -27 11 -11 35 10 15 12 26 6 30 -22 13 -10
130 25 252 19 67 35 129 35 137 0 9 9 25 20 36 23 23 26 50 6 50 -11 0 -14 21
-15 97 0 121 10 204 38 308 24 84 42 298 45 501 1 117 -6 138 -50 146 -16 2
-20 -6 -26 -52 -10 -72 4 -233 20 -227 12 4 12 -17 0 -50 -7 -18 -17 -33 -24
-33 -17 0 -33 -74 -45 -217 -6 -70 -15 -144 -20 -163 -5 -19 -23 -90 -41 -157
-18 -68 -37 -123 -42 -123 -36 1 -41 18 -40 141 0 103 -2 119 -13 103 -12 -17
-13 -17 -13 2 -1 19 -1 19 -15 0 -11 -14 -15 -16 -15 -5 -1 21 -29 -46 -51
-119 -10 -35 -23 -70 -29 -77 -6 -7 -8 -24 -5 -38 9 -34 -10 -42 -35 -17 -19
19 -21 31 -18 125 2 85 1 101 -10 92 -10 -8 -16 -7 -23 4 -7 11 -9 11 -9 -3 0
-10 -6 -18 -12 -18 -16 0 -31 -32 -59 -126 -14 -49 -26 -73 -34 -70 -7 2 -17
0 -23 -6 -15 -15 -25 62 -17 132 5 41 4 60 -4 60 -6 0 -11 -4 -11 -9 0 -6 -9
-8 -20 -6 -26 5 -43 -21 -70 -112 -23 -76 -40 -99 -66 -89 -13 5 -15 22 -12
100 2 60 0 92 -7 86 -5 -6 -19 -10 -32 -10 -26 0 -50 -41 -78 -135 -22 -73
-24 -75 -54 -64 -22 9 -23 13 -20 88 l4 80 -30 -6 c-38 -7 -50 -22 -76 -100
-12 -38 -29 -67 -41 -74 -29 -16 -38 3 -38 84 l0 67 -27 -6 c-40 -10 -37 -6
-77 -97 -44 -97 -70 -112 -79 -45 -3 22 -3 55 0 74 5 33 4 34 -25 34 -37 0
-50 -17 -82 -102 -18 -48 -25 -58 -45 -58 -23 0 -24 3 -27 95 -2 52 0 95 4 95
14 0 46 42 76 98 30 57 53 165 82 392 6 47 13 94 15 105 3 11 2 14 -1 8 -3 -7
-18 -13 -33 -13 -55 0 -83 -119 -82 -347 1 -78 -2 -144 -7 -146 -22 -14 -78
11 -100 43 -28 42 -56 59 -99 60 -24 0 -42 10 -72 40 -31 32 -47 40 -75 40
-29 0 -45 9 -81 44 -34 34 -54 46 -82 48 -30 2 -42 10 -58 35 -24 37 -64 63
-97 63 -15 0 -40 18 -71 50 -41 42 -53 49 -74 44 -21 -6 -33 1 -73 45 -38 41
-53 51 -79 51 -25 0 -42 11 -81 51 -33 34 -55 49 -66 45 -22 -8 -52 10 -101
62 -29 31 -47 43 -58 38 -22 -8 -75 24 -75 46 0 10 9 32 20 50 11 18 20 41 20
50 0 9 6 21 14 25 14 8 56 85 56 102 0 5 12 22 28 39 15 16 61 99 104 183 438
881 508 1024 508 1047 0 7 4 12 9 12 5 0 11 10 14 22 3 13 14 48 25 79 15 39
21 81 21 140 1 152 9 188 66 299 14 27 23 125 12 136 -3 4 1 20 9 36 10 19 13
42 9 68 -4 24 -2 40 4 40 6 0 8 7 4 15 -3 10 0 15 8 13 9 -2 14 6 14 24 0 14
3 30 8 34 4 4 7 24 7 44 0 21 3 52 7 71 5 29 7 30 15 14 6 -14 7 -11 2 10 -10
54 -10 284 1 277 6 -3 4 1 -3 10 -22 28 -9 130 24 183 16 25 33 45 37 45 4 0
21 14 37 32 23 24 30 43 32 82 3 57 -10 106 -29 106 -6 0 -17 8 -22 18 -6 9
-11 13 -11 9 0 -5 -8 -1 -17 9 -15 14 -18 38 -20 133 -1 64 -3 158 -5 209 -2
69 0 91 9 88 17 -7 28 13 14 27 -15 15 -14 37 5 72 8 16 18 59 21 95 3 36 10
74 16 84 11 23 12 99 2 166 -7 42 -6 44 9 25 15 -19 15 -19 16 10 0 34 -36
111 -69 146 -24 26 -28 44 -7 36 15 -6 12 16 -5 39 -14 18 -23 118 -10 110 6
-4 11 -13 11 -19 0 -7 11 -29 25 -49 14 -20 25 -47 25 -60 1 -29 25 -74 33
-61 9 15 16 113 8 113 -8 0 -32 62 -27 68 3 2 12 -8 21 -22 18 -27 41 -36 32
-12 -3 7 -1 18 5 24 7 7 3 17 -12 32 -15 15 -25 19 -29 11 -4 -6 -14 2 -25 20
-29 50 4 62 42 17 13 -16 27 -26 31 -24 11 7 -18 186 -34 209 -19 28 -19 48 0
41 20 -8 19 9 -4 82 -10 32 -24 82 -30 109 -17 75 -45 145 -138 355 -35 77
-54 112 -71 133 -9 10 -17 25 -18 35 -2 9 -9 21 -17 27 -14 11 -47 71 -47 87
0 5 -14 23 -30 40 -17 16 -28 34 -25 39 7 10 -18 61 -51 104 -12 17 -39 63
-61 102 -52 99 -144 207 -192 226 -21 9 -58 39 -84 67 -34 38 -68 61 -139 95
-51 24 -118 58 -148 74 -95 52 -148 71 -212 77 -35 3 -78 12 -97 21 -18 8 -43
16 -55 18 -11 1 -36 11 -55 21 -20 9 -73 21 -120 25 -47 5 -104 13 -126 19
-22 6 -71 13 -110 16 -80 7 -375 11 -420 6z m1450 -1172 c-4 -7 45 -22 82 -24
20 -2 103 -78 96 -89 -3 -6 -1 -7 6 -3 14 9 50 -32 51 -58 0 -14 3 -16 14 -7
11 9 14 1 20 -45 3 -31 15 -69 26 -84 11 -16 23 -42 26 -60 4 -17 15 -48 25
-68 11 -20 19 -44 19 -53 0 -10 4 -19 9 -21 6 -1 12 -16 15 -33 2 -16 5 -30 7
-30 4 0 10 -98 13 -245 4 -221 4 -213 21 -206 8 3 15 1 15 -4 0 -6 -6 -10 -12
-10 -9 0 -9 -3 1 -9 25 -16 51 -120 44 -181 -5 -54 10 -157 28 -189 24 -43
106 -328 114 -401 2 -14 7 -45 12 -70 8 -46 10 -368 2 -472 -2 -31 -8 -54 -13
-51 -4 3 -5 -3 -2 -13 3 -11 2 -32 -2 -49 -5 -16 -5 -44 -1 -62 4 -21 3 -33
-5 -36 -6 -3 -18 -28 -25 -56 -8 -31 -17 -48 -23 -44 -7 3 -8 1 -4 -6 4 -6 12
-9 17 -6 14 9 11 -11 -4 -24 -8 -6 -18 -7 -22 -3 -5 4 -1 -4 8 -18 19 -27 22
-60 7 -60 -5 0 -10 5 -10 10 0 6 -4 10 -10 10 -5 0 -7 -13 -4 -29 7 -33 -10
-49 -31 -31 -17 14 -20 -1 -4 -17 14 -14 -26 -57 -43 -47 -6 4 -9 1 -6 -7 3
-8 11 -13 17 -11 7 1 10 -2 7 -7 -4 -5 -2 -12 4 -16 5 -3 10 -17 10 -31 0 -22
-5 -26 -27 -23 -12 1 -21 -34 -17 -65 l4 -30 -30 35 c-31 37 -32 36 -32 -46 0
-27 -2 -40 -5 -27 -5 23 -22 31 -24 10 -2 -15 -16 39 -18 65 -1 11 3 15 11 11
7 -4 8 -3 4 4 -11 18 -24 14 -31 -8 -3 -11 -11 -20 -17 -20 -5 0 -7 7 -4 16 3
8 2 12 -4 9 -5 -3 -16 7 -25 22 -13 23 -15 24 -10 5 5 -15 1 -24 -10 -28 -9
-4 -14 -13 -11 -20 6 -16 -12 -18 -33 -5 -8 5 -10 14 -6 21 5 9 4 11 -3 6 -7
-4 -12 -2 -12 4 0 7 -8 9 -20 5 -12 -4 -20 -2 -20 5 0 6 4 9 9 6 5 -3 12 1 15
10 8 20 -2 54 -15 54 -5 0 -9 8 -9 19 0 10 -7 24 -15 31 -8 7 -15 22 -16 34 0
20 -1 20 -8 1 -7 -18 -8 -18 -18 -1 -6 11 -8 27 -6 37 4 12 0 19 -9 19 -9 0
-18 17 -24 43 -8 35 -12 42 -31 39 -18 -3 -24 4 -34 37 -7 23 -16 41 -21 41
-5 0 -6 6 -2 13 6 8 3 8 -9 -2 -14 -11 -18 -10 -28 13 -7 14 -18 26 -26 26 -7
0 -13 5 -13 10 0 6 -9 10 -20 10 -11 0 -20 5 -20 11 0 5 5 7 12 3 7 -5 8 -3 4
5 -5 7 -15 10 -23 7 -8 -3 -11 -1 -8 4 3 6 0 10 -7 10 -10 0 -9 3 2 10 11 7 9
11 -13 19 -15 6 -27 15 -27 20 0 5 -9 7 -19 4 -13 -3 -21 2 -26 16 -4 12 -12
18 -21 14 -8 -3 -14 1 -14 11 0 9 5 16 12 16 6 0 9 3 6 6 -4 3 -16 1 -28 -6
-17 -9 -27 -7 -57 11 l-35 22 7 -21 c4 -13 2 -22 -4 -22 -6 0 -11 6 -12 13 0
6 -5 -1 -11 -16 -7 -19 -15 -26 -25 -23 -9 4 -11 2 -7 -6 5 -8 2 -9 -10 -5
-10 4 -15 3 -11 -3 3 -6 -1 -10 -9 -10 -9 0 -16 -7 -16 -16 0 -8 4 -12 10 -9
6 4 7 -6 4 -24 -4 -21 1 -46 16 -78 12 -27 25 -76 28 -110 2 -34 9 -60 13 -57
5 3 9 1 9 -4 0 -5 9 -12 21 -15 12 -3 18 -10 14 -17 -4 -6 3 -20 15 -30 12
-10 19 -24 15 -29 -3 -6 1 -11 9 -11 9 0 18 -11 22 -25 4 -15 11 -22 18 -18 6
3 8 3 4 -2 -4 -4 -3 -14 3 -21 18 -22 0 -35 -26 -18 -18 11 -25 12 -31 3 -4
-8 -3 -9 4 -5 7 4 12 1 12 -8 0 -8 -5 -18 -10 -21 -6 -4 -8 -11 -5 -16 12 -18
-13 -8 -39 16 -15 14 -32 23 -37 19 -6 -3 -3 -12 8 -20 16 -12 14 -12 -17 -4
l-35 10 41 -38 c22 -20 30 -28 17 -18 -13 11 -26 16 -30 12 -4 -4 -1 -11 7
-16 17 -11 9 -13 -14 -4 -13 5 -14 9 -5 20 8 10 8 14 1 14 -6 0 -18 16 -27 35
-9 19 -24 40 -33 47 -13 11 -14 11 -7 -2 8 -13 7 -13 -8 -1 -24 19 -21 38 8
65 14 13 25 26 25 29 0 8 -82 40 -110 43 -14 2 -26 8 -28 13 -2 5 -9 8 -17 5
-8 -3 -11 -12 -8 -21 4 -9 -5 -24 -22 -39 -36 -30 -47 -30 -35 0 5 13 6 27 3
30 -4 3 -2 6 4 6 28 0 -7 128 -42 153 -16 11 -25 13 -25 6 0 -8 -4 -8 -15 1
-8 7 -15 19 -15 26 0 8 -4 14 -10 14 -5 0 -7 -8 -4 -17 5 -15 4 -15 -4 -3 -6
8 -8 19 -4 24 7 12 11 46 5 46 -3 0 -14 -5 -25 -11 -18 -10 -20 -9 -15 5 4 10
3 15 -3 11 -5 -3 -18 -1 -27 5 -13 9 -14 10 -2 7 11 -4 15 1 14 16 -2 26 -18
32 -47 16 -27 -15 -58 -19 -58 -7 0 8 16 12 33 9 5 -1 7 6 5 16 -2 10 -12 17
-22 16 -9 0 -15 2 -12 5 3 3 1 11 -5 18 -13 16 -3 35 15 28 8 -3 17 0 22 7 4
8 3 10 -5 5 -22 -14 -36 19 -38 93 -1 41 2 69 6 62 6 -9 11 -8 21 4 10 12 10
15 -5 15 -15 0 -16 2 -4 17 12 14 12 16 -1 9 -11 -5 -10 -3 1 6 12 9 16 24 13
48 -10 84 -4 161 15 184 7 8 10 19 7 25 -4 5 1 17 10 26 11 11 14 25 10 45 -3
17 -1 30 4 30 6 0 10 7 10 15 0 9 8 30 17 48 9 18 16 36 15 41 -2 5 4 6 13 3
8 -4 15 -2 15 4 0 13 25 39 39 39 5 0 15 8 20 18 7 11 13 13 18 6 5 -6 15 -13
24 -16 18 -7 52 -95 43 -109 -3 -5 0 -28 7 -51 6 -24 13 -50 14 -58 7 -34 38
-81 66 -101 16 -11 27 -24 24 -29 -7 -11 20 -31 30 -22 5 4 6 3 3 -3 -7 -11
10 -28 32 -33 8 -2 22 -13 31 -24 9 -12 21 -18 27 -14 5 3 13 -1 16 -10 4 -10
2 -13 -6 -8 -7 4 -8 3 -4 -4 4 -7 16 -12 27 -12 11 0 19 -7 19 -16 0 -10 6
-14 14 -11 8 3 20 -1 27 -9 10 -12 9 -13 -7 -8 -15 5 -16 4 -5 -4 10 -7 21 -7
33 -1 12 7 18 6 18 -1 0 -6 4 -9 9 -6 5 4 11 2 13 -4 1 -5 21 -11 43 -13 22
-2 49 -7 60 -13 18 -8 40 -10 55 -4 21 8 70 9 70 1 0 -20 25 0 55 44 17 25 34
45 38 45 9 0 31 17 55 43 9 9 23 17 32 17 19 0 26 49 7 51 -6 1 -16 2 -22 4
-5 1 -17 3 -26 3 -25 3 -25 84 1 107 11 10 17 22 14 27 -4 6 9 8 31 6 30 -2
39 1 45 16 4 14 9 16 14 8 4 -7 11 -10 15 -8 10 6 24 -5 43 -34 18 -30 85 -43
74 -15 -3 9 0 15 9 15 23 0 18 18 -10 36 -28 18 -33 34 -10 34 18 0 19 12 3
28 -7 7 -9 12 -6 12 3 0 2 17 -4 38 -17 68 -17 82 0 82 8 0 12 3 8 8 -4 4 -13
7 -18 7 -6 0 -13 6 -15 13 -3 6 2 12 11 12 9 0 13 6 10 13 -3 8 2 14 11 14 8
0 15 -3 15 -6 0 -4 19 -5 42 -2 40 3 42 3 28 -15 -14 -17 -14 -18 2 -5 10 7
15 17 12 22 -3 5 1 9 8 10 7 1 2 5 -12 9 -15 5 -18 8 -9 9 24 1 41 51 18 51
-6 0 -9 -7 -5 -15 3 -8 1 -15 -4 -15 -10 0 -14 13 -11 35 0 6 -14 19 -32 30
-42 24 -154 105 -179 128 -13 13 -30 18 -49 15 -16 -3 -29 -1 -29 3 0 4 -7 10
-16 13 -14 5 -15 4 -4 -9 11 -13 8 -13 -28 -1 -31 11 -42 12 -45 3 -3 -9 -8
-8 -21 2 -9 8 -20 11 -23 7 -4 -4 -1 -12 7 -17 11 -8 7 -9 -15 -4 -71 14 -81
16 -105 19 -40 5 -42 5 -34 18 5 8 2 9 -10 5 -10 -4 -29 -7 -42 -7 -14 0 -22
-4 -19 -10 3 -6 -1 -7 -9 -4 -9 3 -14 10 -11 14 3 4 -3 11 -12 15 -10 3 -19 1
-21 -4 -2 -7 -11 -7 -25 1 -12 6 -41 10 -63 9 -28 -2 -47 3 -58 14 -14 15 -16
15 -16 1 0 -9 -4 -16 -9 -16 -5 0 -17 -3 -26 -6 -9 -4 -15 -3 -13 2 1 5 -1 19
-6 32 -8 25 -36 30 -36 6 0 -10 6 -14 15 -10 9 3 15 0 15 -8 0 -7 -6 -13 -12
-13 -7 0 -22 -4 -33 -8 -15 -5 -16 -4 -6 3 11 8 9 12 -10 23 -13 7 -28 12 -33
11 -5 -2 -4 4 3 12 7 8 10 19 7 24 -10 16 -44 21 -50 7 -4 -11 -10 -11 -30 -2
-14 7 -26 15 -26 20 0 4 -6 7 -14 7 -8 0 -22 10 -30 22 -13 18 -16 19 -16 5 0
-22 -17 -22 -23 1 -3 13 -6 11 -15 -10 -8 -19 -16 -26 -27 -22 -8 3 -15 11
-15 16 0 6 -6 8 -14 5 -10 -4 -13 2 -12 18 0 15 5 20 10 14 6 -5 17 -9 25 -9
21 0 1 19 -24 23 -11 1 -26 6 -33 11 -7 4 -16 5 -20 1 -4 -3 1 -11 11 -16 18
-10 24 -49 7 -49 -5 0 -13 7 -18 16 -12 21 -33 9 -26 -14 2 -9 -1 -6 -8 8 -19
38 -29 40 -57 14 -33 -31 -67 -29 -63 4 4 24 -14 31 -20 8 -3 -13 -6 -13 -22
-1 -23 18 -11 38 19 31 13 -3 27 -2 30 4 6 9 -6 11 -100 15 -16 1 -47 9 -67
19 -29 12 -38 22 -38 41 0 28 -2 29 -48 16 -20 -6 -32 -6 -32 0 0 5 9 9 20 9
28 0 25 28 -4 36 -16 4 -23 11 -19 20 3 8 -1 14 -11 14 -9 0 -16 -5 -16 -11 0
-5 -4 -8 -9 -4 -5 3 -12 -3 -14 -12 -3 -10 -5 2 -6 27 -1 35 -4 42 -12 30 -9
-12 -12 -13 -16 -1 -5 11 -7 11 -14 0 -7 -11 -9 -11 -9 -1 0 7 -4 10 -10 7 -5
-3 -10 1 -10 9 0 9 -8 17 -17 17 -10 1 -22 2 -28 4 -5 1 -16 3 -22 3 -7 1 -13
6 -13 11 0 5 8 7 18 4 26 -6 87 11 88 25 1 7 2 17 3 22 0 6 10 10 21 10 11 0
20 4 20 9 0 15 33 22 42 9 6 -10 10 -10 18 2 7 12 13 13 27 3 10 -6 17 -17 15
-24 -5 -22 21 -28 56 -13 19 8 44 14 56 15 19 1 18 2 -4 9 l-25 8 24 1 c23 1
24 2 6 15 -17 12 -16 14 13 18 17 2 33 0 36 -6 2 -6 2 13 1 42 -3 31 0 50 6
47 5 -4 19 -3 32 1 21 7 21 7 2 15 -17 6 -16 8 13 14 32 8 41 19 22 30 -8 5
-8 11 -1 19 6 7 8 16 4 19 -3 4 5 7 19 7 14 0 31 -7 38 -15 11 -13 14 -13 24
-1 11 13 63 31 80 27 4 -1 14 4 22 10 13 11 19 2 15 -23 -2 -13 23 -8 44 8 20
15 20 15 -2 20 -22 6 -40 46 -23 52 6 2 10 10 10 18 0 8 8 22 18 32 10 10 22
27 26 38 8 18 8 18 16 -2 4 -11 22 -34 39 -51 17 -18 31 -40 31 -51 0 -22 27
-49 38 -38 4 4 -2 14 -12 22 -19 13 -19 14 -2 14 14 0 16 3 8 13 -6 7 -14 33
-18 57 l-7 45 24 -30 c13 -16 37 -41 53 -54 15 -14 34 -31 42 -39 8 -7 14 -9
14 -3 0 5 -11 18 -24 29 -33 26 -77 79 -80 96 -1 8 -8 21 -15 30 -7 8 -14 32
-16 53 -1 21 0 28 2 15 2 -12 14 -27 26 -34 20 -10 21 -10 8 6 -8 9 -16 30
-18 47 -2 22 1 29 15 29 10 0 27 6 38 14 12 10 23 11 31 5 8 -7 10 -5 6 10 -4
15 -1 19 14 15 10 -3 28 4 41 16 17 16 22 18 22 5 0 -8 5 -15 10 -15 6 0 10 7
8 16 -2 9 4 20 12 24 39 20 103 46 185 76 161 58 169 62 187 85 10 13 22 29
28 36 11 13 123 16 115 3z m-1954 -357 c5 -15 3 -26 -8 -35 -14 -11 -15 -10
-8 11 5 16 4 21 -4 17 -16 -10 -14 -32 5 -50 19 -20 9 -42 -12 -25 -11 9 -14
8 -14 -7 0 -11 -9 -25 -20 -32 -26 -16 -46 -6 -30 13 7 8 9 19 5 25 -4 6 -1
17 5 25 6 8 9 23 5 34 -4 15 1 23 22 34 35 18 44 17 54 -10z m1196 -25 c-3 -7
-5 -2 -5 12 0 14 2 19 5 13 2 -7 2 -19 0 -25z m-1293 -8 c-10 -4 -21 -6 -24
-3 -8 7 24 22 34 16 5 -4 1 -10 -10 -13z m1300 -46 c10 -26 7 -46 -6 -42 -7 3
-13 17 -14 31 -1 30 10 36 20 11z m-174 -103 c10 -19 10 -22 -1 -16 -9 6 -11
4 -6 -7 4 -12 1 -14 -13 -11 -17 4 -17 7 -5 19 8 8 11 22 8 32 -8 22 1 13 17
-17z m-49 -48 c13 -17 13 -17 -6 -3 -11 8 -22 16 -24 17 -2 2 0 3 6 3 6 0 17
-8 24 -17z m-1121 -23 c0 -5 -4 -10 -10 -10 -5 0 -10 5 -10 10 0 6 5 10 10 10
6 0 10 -4 10 -10z m2530 -43 c0 -5 -4 -5 -10 -2 -5 3 -10 14 -10 23 0 15 2 15
10 2 5 -8 10 -19 10 -23z m327 -29 c-3 -8 -6 -5 -6 6 -1 11 2 17 5 13 3 -3 4
-12 1 -19z m-3503 -192 c-3 -14 -10 -26 -15 -26 -11 0 -11 3 1 36 13 33 23 26
14 -10z m1471 24 c-3 -5 -11 -10 -16 -10 -6 0 -7 5 -4 10 3 6 11 10 16 10 6 0
7 -4 4 -10z m1802 -22 c-3 -8 -6 -5 -6 6 -1 11 2 17 5 13 3 -3 4 -12 1 -19z
m213 -3 c0 -8 -4 -15 -10 -15 -5 0 -7 7 -4 15 4 8 8 15 10 15 2 0 4 -7 4 -15z
m-147 -79 c-4 -5 -10 3 -14 19 -5 15 -5 33 -2 39 4 5 10 -3 14 -19 5 -15 5
-33 2 -39z m-3382 11 c-8 -8 -11 -7 -11 4 0 20 13 34 18 19 3 -7 -1 -17 -7
-23z m3455 -59 c10 -52 9 -59 -2 -43 -8 10 -14 30 -14 44 0 14 -3 37 -7 51 -3
15 -2 22 3 17 5 -5 14 -36 20 -69z m-129 30 c-3 -8 -6 -5 -6 6 -1 11 2 17 5
13 3 -3 4 -12 1 -19z m233 -9 c0 -5 -4 -9 -10 -9 -5 0 -10 7 -10 16 0 8 5 12
10 9 6 -3 10 -10 10 -16z m-283 -21 c-3 -8 -6 -5 -6 6 -1 11 2 17 5 13 3 -3 4
-12 1 -19z m122 -110 c1 -25 -3 -38 -12 -38 -13 0 -15 34 -7 110 2 24 3 24 10
-5 4 -16 8 -47 9 -67z m38 10 c-3 -8 -6 -5 -6 6 -1 11 2 17 5 13 3 -3 4 -12 1
-19z m-2721 -8 c8 -8 19 -7 37 1 28 13 62 5 52 -11 -3 -6 4 -10 17 -10 27 0
64 -19 38 -20 -8 0 -21 -4 -29 -9 -12 -8 -12 -12 -2 -24 10 -13 9 -15 -8 -10
-16 4 -21 0 -22 -13 -1 -17 -2 -17 -6 -1 -2 9 -9 15 -14 11 -5 -3 -7 -10 -4
-15 4 -5 -3 -21 -14 -35 -12 -15 -21 -35 -21 -45 0 -11 -6 -20 -12 -21 -40 -4
-66 -16 -91 -41 -14 -14 -21 -16 -27 -7 -5 8 -9 7 -14 -5 -9 -24 -7 -37 4 -30
6 3 10 2 10 -3 0 -6 -12 -13 -27 -17 -16 -4 -22 -10 -15 -12 10 -4 10 -9 -3
-23 -9 -10 -18 -27 -20 -37 -2 -10 -4 -20 -4 -23 -1 -3 -6 2 -11 10 -9 13 -12
12 -26 -5 -8 -11 -18 -20 -22 -20 -4 0 -6 -5 -4 -11 1 -6 -4 -14 -13 -18 -8
-3 -15 -10 -15 -16 0 -6 5 -8 10 -5 6 3 10 -1 10 -10 0 -9 -4 -13 -10 -10 -10
6 -15 -27 -12 -77 2 -23 -2 -28 -20 -29 -17 -1 -19 -2 -5 -6 22 -6 21 -10 -3
-77 -13 -34 -18 -64 -14 -80 4 -18 2 -26 -7 -26 -9 -1 -8 -4 4 -11 9 -6 15
-15 12 -20 -4 -5 -10 -7 -14 -4 -5 2 -3 -12 4 -32 10 -27 10 -41 2 -55 -9 -13
-9 -20 0 -29 8 -8 13 -7 18 2 5 8 4 10 -3 5 -7 -4 -12 -3 -12 3 0 5 4 12 9 15
14 9 20 -16 9 -37 -5 -10 -6 -28 -2 -40 5 -12 7 -24 7 -27 -1 -3 -4 -32 -8
-64 -3 -33 -8 -64 -12 -68 -3 -5 4 -12 15 -14 19 -5 19 -7 1 -73 -10 -37 -16
-80 -14 -97 2 -16 4 -36 4 -46 1 -12 7 -15 23 -10 14 3 19 2 14 -6 -4 -7 0
-15 9 -18 14 -6 14 -8 -2 -20 -12 -9 -14 -13 -5 -14 7 0 10 -5 7 -10 -4 -6
-10 -8 -14 -6 -4 3 -13 0 -21 -6 -12 -8 -12 -9 2 -4 22 7 33 -11 18 -29 -8
-10 -8 -15 1 -21 8 -4 9 -3 5 4 -4 7 -2 12 3 12 15 0 14 -30 -1 -31 -8 0 -9
-2 -2 -5 6 -2 9 -20 8 -39 -3 -32 -1 -34 16 -25 20 11 29 -3 10 -15 -5 -3 -13
-20 -18 -38 l-9 -32 -7 48 c-5 30 -11 45 -18 41 -7 -5 -9 2 -6 19 5 25 -13 44
-32 32 -4 -3 -10 2 -14 10 -3 8 -2 15 2 15 4 0 8 11 8 25 2 21 -1 24 -12 14
-11 -9 -14 -8 -14 8 0 10 -5 24 -12 31 -7 7 -8 12 -3 12 4 0 1 8 -8 18 -8 9
-17 31 -19 47 -2 22 -8 29 -20 27 -13 -2 -16 3 -12 24 4 21 2 25 -12 20 -12
-5 -15 -2 -10 9 3 9 2 13 -4 10 -6 -3 -10 -18 -11 -33 l0 -27 -10 25 c-6 14
-8 33 -5 42 2 10 0 18 -6 18 -5 0 -6 4 -3 10 3 5 -4 20 -17 32 -13 13 -19 20
-14 16 20 -15 29 -8 13 10 -20 21 -22 42 -6 42 8 0 8 4 0 14 -10 12 -18 109
-11 126 1 3 3 41 4 85 3 87 21 236 35 300 5 22 15 67 22 100 7 33 13 62 14 65
19 79 85 250 96 250 4 0 14 19 24 43 19 47 44 79 56 72 4 -3 14 2 23 10 8 8
34 17 58 19 27 2 42 7 40 15 -1 7 3 11 10 9 7 -1 24 4 37 11 21 12 63 27 82
30 3 1 10 -4 15 -9z m184 -14 c0 -11 -19 -15 -25 -6 -3 5 1 10 9 10 9 0 16 -2
16 -4z m2567 -33 c-3 -10 -5 -4 -5 12 0 17 2 24 5 18 2 -7 2 -21 0 -30z
m-1867 -3 c0 -5 -4 -10 -10 -10 -5 0 -10 5 -10 10 0 6 5 10 10 10 6 0 10 -4
10 -10z m1926 -66 c-6 -22 -9 -25 -17 -13 -5 7 -9 27 -9 44 0 27 1 28 16 13
12 -12 15 -25 10 -44z m-2636 32 c0 -9 -30 -14 -35 -6 -4 6 3 10 14 10 12 0
21 -2 21 -4z m2480 -35 c5 -19 5 -31 -1 -31 -5 0 -9 9 -9 19 0 11 -3 28 -7 38
-3 10 -3 15 1 12 4 -4 11 -20 16 -38z m71 -18 c0 -21 2 -76 4 -123 1 -52 -1
-73 -5 -55 -4 17 -8 53 -9 80 -1 28 -8 67 -15 87 -13 36 -10 44 17 47 4 1 7
-16 8 -36z m-3421 -17 c0 -3 -4 -8 -10 -11 -5 -3 -10 -1 -10 4 0 6 5 11 10 11
6 0 10 -2 10 -4z m3357 -28 c-3 -8 -6 -5 -6 6 -1 11 2 17 5 13 3 -3 4 -12 1
-19z m-2557 2 c0 -5 -9 -10 -20 -10 -11 0 -20 5 -20 10 0 6 9 10 20 10 11 0
20 -4 20 -10z m2717 -52 c-3 -8 -6 -5 -6 6 -1 11 2 17 5 13 3 -3 4 -12 1 -19z
m-2827 8 c0 -3 -4 -8 -10 -11 -5 -3 -10 -1 -10 4 0 6 5 11 10 11 6 0 10 -2 10
-4z m-6 -100 c-22 -13 -55 -34 -72 -46 -26 -19 -35 -21 -45 -11 -10 10 -8 11
6 6 9 -4 17 -3 17 3 0 6 18 21 40 33 21 12 38 25 36 28 -2 3 10 7 27 8 l32 3
-41 -24z m2713 -88 c-3 -7 -5 -2 -5 12 0 14 2 19 5 13 2 -7 2 -19 0 -25z
m-2874 -13 c-3 -9 -8 -14 -10 -11 -3 3 -2 9 2 15 9 16 15 13 8 -4z m2926 -125
c1 -13 0 -13 -9 0 -5 8 -9 24 -9 35 l0 20 9 -20 c5 -11 9 -27 9 -35z m-541
-255 c-3 -3 -9 2 -12 12 -6 14 -5 15 5 6 7 -7 10 -15 7 -18z m543 -380 c0 -10
4 -24 8 -30 14 -19 21 -45 10 -45 -13 0 -26 37 -34 92 -3 23 -7 52 -8 63 -2
11 -1 25 2 30 6 10 23 -74 22 -110z m-2 -97 c12 -15 11 -18 -3 -18 -10 0 -16
8 -16 22 0 12 1 19 3 17 1 -2 9 -12 16 -21z m-3019 8 c0 -3 -4 -8 -10 -11 -5
-3 -10 -1 -10 4 0 6 5 11 10 11 6 0 10 -2 10 -4z m14 -76 c-6 -6 -10 -3 -10
10 0 13 4 16 10 10 7 -7 7 -13 0 -20z m1306 -100 c0 -5 -5 -10 -11 -10 -5 0
-7 5 -4 10 3 6 8 10 11 10 2 0 4 -4 4 -10z m1653 -90 c3 -11 1 -20 -4 -20 -5
0 -10 5 -10 10 -3 20 -4 25 -14 40 -7 13 -6 13 7 2 9 -7 18 -22 21 -32z
m-1698 20 c3 -5 2 -10 -4 -10 -5 0 -13 5 -16 10 -3 6 -2 10 4 10 5 0 13 -4 16
-10z m-1511 -219 c8 -11 8 -13 0 -8 -6 4 -22 -2 -34 -13 -28 -24 -27 -24 -27
-5 0 8 4 12 9 9 4 -3 8 8 8 25 0 31 23 49 29 22 2 -9 8 -22 15 -30z m3209 34
c-3 -9 -8 -14 -10 -11 -3 3 -2 9 2 15 9 16 15 13 8 -4z m-100 -82 c5 -26 4
-26 -9 -8 -16 22 -18 35 -5 35 5 0 11 -12 14 -27z m92 -102 c0 -31 -3 -39 -16
-38 -10 1 -15 7 -12 17 5 14 25 60 27 60 1 0 1 -18 1 -39z m-1105 -27 c0 -16
-2 -16 -24 -8 -9 3 -16 11 -16 16 0 6 8 4 17 -3 15 -12 16 -12 10 4 -4 11 -3
16 3 12 6 -3 10 -13 10 -21z m760 -29 c0 -8 -4 -15 -10 -15 -5 0 -10 7 -10 15
0 8 5 15 10 15 6 0 10 -7 10 -15z m-780 -456 c0 -3 -3 -21 -6 -38 -5 -25 -9
-29 -20 -20 -10 8 -14 8 -14 0 0 -6 5 -11 11 -11 5 0 8 -4 5 -8 -2 -4 7 -7 21
-6 17 0 27 7 29 19 3 22 24 45 24 26 0 -9 4 -10 13 -4 6 6 19 11 27 11 8 1 28
3 43 5 32 5 52 -21 44 -59 -2 -13 0 -24 5 -24 5 0 4 -9 -2 -19 -7 -14 -7 -20
2 -23 8 -3 4 -12 -9 -25 -19 -19 -20 -23 -7 -34 21 -17 10 -23 -16 -9 -18 10
-21 9 -15 -1 6 -9 3 -11 -8 -6 -20 7 -21 3 -7 -24 9 -15 7 -19 -5 -19 -9 0
-13 5 -10 10 3 6 1 10 -5 10 -7 0 -9 -8 -5 -19 3 -10 7 -33 10 -50 2 -17 7
-36 11 -43 8 -14 -23 10 -65 50 -19 17 -26 20 -33 10 -6 -10 -8 -10 -8 0 0 6
-4 12 -10 12 -5 0 -7 -6 -4 -14 6 -17 -11 -16 -43 2 -14 8 -20 18 -16 32 6 23
-15 28 -35 8 -13 -13 -14 -11 -16 47 -1 24 -5 29 -21 27 -24 -5 -21 -1 28 32
21 14 46 26 55 27 10 0 12 3 5 6 -7 2 -13 9 -13 14 0 6 4 8 9 5 5 -4 7 3 4 14
-4 15 -9 18 -18 10 -9 -8 -15 -8 -20 0 -9 15 -25 12 -25 -4 0 -11 -7 -13 -29
-6 -16 4 -32 6 -35 2 -10 -9 -7 18 4 39 6 10 20 19 31 19 11 0 17 5 14 10 -3
6 4 10 17 10 13 0 28 4 35 8 14 9 73 10 73 1z m15 -39 c3 -5 1 -10 -4 -10 -6
0 -11 5 -11 10 0 6 2 10 4 10 3 0 8 -4 11 -10z m969 -127 c-4 -15 -14 -35 -22
-43 -9 -8 -13 -10 -10 -5 2 6 10 25 17 43 16 39 24 42 15 5z m2 -91 c-6 -52
-28 -112 -56 -152 -10 -14 -41 -70 -70 -125 -73 -138 -107 -184 -131 -178 -23
6 -25 19 -4 27 8 3 12 12 9 20 -5 13 59 105 88 126 3 3 10 17 13 33 4 15 12
24 18 20 6 -3 7 -1 3 6 -4 6 3 26 16 44 12 17 21 38 20 46 -5 20 19 61 35 61
8 0 13 13 13 36 0 25 4 33 13 28 10 -6 10 -4 0 7 -7 7 -13 18 -13 24 0 5 4 4
9 -4 7 -11 10 -9 16 8 12 40 27 22 21 -27z m-1149 -14 c-3 -8 -6 -5 -6 6 -1
11 2 17 5 13 3 -3 4 -12 1 -19z m364 -5 c13 -16 12 -17 -3 -4 -17 13 -22 21
-14 21 2 0 10 -8 17 -17z m-286 -3 c-3 -5 -12 -10 -18 -10 -7 0 -6 4 3 10 19
12 23 12 15 0z m113 -95 c-3 -3 -9 2 -12 12 -6 14 -5 15 5 6 7 -7 10 -15 7
-18z m686 -356 c9 14 26 14 26 1 0 -5 -13 -24 -30 -42 l-29 -33 -1 36 c0 38 9
56 21 38 5 -8 8 -8 13 0z m-54 -106 c-11 -17 -11 -17 -6 0 6 19 -4 23 -20 7
-6 -6 -10 -3 -10 9 0 13 6 18 18 16 10 -2 17 -1 17 3 -1 4 0 14 1 22 2 8 5 3
7 -12 2 -15 -1 -35 -7 -45z m-2086 -69 c3 -8 2 -12 -4 -9 -6 3 -10 10 -10 16
0 14 7 11 14 -7z m1753 -570 c-24 -49 -60 -115 -81 -146 -20 -32 -41 -70 -47
-85 -6 -16 -33 -68 -61 -116 -47 -83 -52 -88 -77 -82 -36 9 -45 20 -29 36 8 8
50 73 95 144 147 234 157 249 196 298 22 26 41 46 44 44 2 -3 -16 -45 -40 -93z
m-2186 -468 c-34 -64 -61 -124 -61 -134 -1 -16 -47 -59 -55 -50 -3 3 142 302
160 328 8 12 11 11 13 -6 2 -12 -24 -74 -57 -138z m1524 -136 c-3 -5 -11 -10
-16 -10 -6 0 -7 5 -4 10 3 6 11 10 16 10 6 0 7 -4 4 -10z m-1664 -102 c-9 -25
-31 -36 -31 -16 0 15 19 38 32 38 4 0 4 -10 -1 -22z m-1 -93 c7 -9 32 -20 56
-26 41 -11 73 -33 61 -45 -11 -11 -117 28 -132 49 -25 35 -12 54 15 22z m-90
-53 c0 -15 -76 -126 -100 -147 -13 -11 -51 -63 -85 -115 -74 -113 -102 -141
-137 -138 -23 2 -25 5 -16 22 25 46 144 195 230 286 88 94 108 111 108 92z
m375 -53 c29 -28 8 -45 -39 -29 -20 6 -36 16 -36 21 0 5 -15 16 -32 24 -33 14
-32 14 27 9 39 -4 67 -13 80 -25z m146 -58 c23 -19 23 -21 7 -37 -16 -16 -18
-16 -42 0 -31 20 -35 56 -7 56 10 0 29 -9 42 -19z m289 -88 c72 -15 141 -42
111 -43 -8 0 -53 5 -100 11 -94 12 -171 35 -171 51 0 11 41 6 160 -19z m771
-70 c-16 -92 -29 -130 -48 -137 -12 -5 -14 -1 -9 16 3 13 13 59 22 103 22 109
23 110 35 98 8 -8 8 -31 0 -80z m-704 -28 c98 -14 194 -30 213 -37 39 -12 83
-38 76 -45 -8 -8 -272 27 -362 47 -102 24 -134 35 -134 50 0 14 5 13 207 -15z
m47 -105 c32 -11 111 -28 175 -39 65 -10 133 -27 152 -37 l34 -19 -27 -3
c-111 -13 -398 65 -398 108 0 13 -3 13 64 -10z m566 -34 c0 -2 -7 -7 -16 -10
-8 -3 -12 -2 -9 4 6 10 25 14 25 6z m2020 -83 c0 -10 -19 -60 -42 -111 -35
-77 -45 -92 -62 -90 -19 3 -21 10 -21 64 0 51 4 66 29 98 39 51 96 74 96 39z
m-3822 -19 c4 -25 -21 -59 -36 -50 -16 9 -15 49 0 64 16 16 32 10 36 -14z
m3612 -39 c0 -23 -42 -129 -54 -137 -37 -25 -49 30 -22 96 19 47 76 77 76 41z
m1584 -141 c34 -13 19 -159 -35 -339 -5 -16 -14 -51 -21 -77 -14 -53 -30 -65
-54 -41 -24 25 -13 165 24 278 16 50 35 111 43 138 14 49 17 51 43 41z m-3450
-72 c7 -34 5 -51 -7 -78 -19 -40 -40 -46 -31 -9 5 19 2 25 -10 25 -9 0 -16 5
-16 10 0 6 6 10 14 10 24 0 29 20 10 41 -9 10 -30 19 -46 19 -29 0 -38 14 -15
24 6 3 30 4 52 3 39 -2 40 -3 49 -45z m-134 -32 c0 -45 3 -52 26 -60 29 -11
30 -43 0 -48 -21 -4 -64 33 -77 67 -13 34 7 91 32 91 16 0 19 -7 19 -50z m45
-10 c3 -5 -1 -10 -10 -10 -9 0 -13 5 -10 10 3 6 8 10 10 10 2 0 7 -4 10 -10z
m-105 -75 c1 -11 2 -29 1 -40 -2 -38 -21 7 -21 50 1 41 16 33 20 -10z m151
-88 c-8 -8 -11 -7 -11 4 0 20 13 34 18 19 3 -7 -1 -17 -7 -23z m-2731 -148 c0
-17 -4 -28 -10 -24 -5 3 -10 17 -10 31 0 13 5 24 10 24 6 0 10 -14 10 -31z"/>
<path d="M4520 6620 c0 -5 -7 -10 -15 -10 -8 0 -15 -4 -15 -9 0 -5 9 -7 20 -4
17 5 30 33 15 33 -3 0 -5 -4 -5 -10z"/>
<path d="M4542 6575 c0 -16 2 -22 5 -12 2 9 2 23 0 30 -3 6 -5 -1 -5 -18z"/>
<path d="M3935 6220 c3 -5 10 -10 16 -10 5 0 9 5 9 10 0 6 -7 10 -16 10 -8 0
-12 -4 -9 -10z"/>
<path d="M4090 6220 l-25 -8 27 -1 c15 -1 30 4 33 9 7 11 0 11 -35 0z"/>
<path d="M4180 6220 c-9 -6 -10 -10 -3 -10 6 0 15 5 18 10 8 12 4 12 -15 0z"/>
<path d="M3910 6123 c0 -10 4 -14 8 -8 4 6 11 13 16 18 5 4 2 7 -7 7 -10 0
-17 -8 -17 -17z"/>
<path d="M4598 5863 c7 -3 16 -2 19 1 4 3 -2 6 -13 5 -11 0 -14 -3 -6 -6z"/>
<path d="M5250 5731 c0 -6 4 -13 10 -16 6 -3 7 1 4 9 -7 18 -14 21 -14 7z"/>
<path d="M4950 4756 c0 -2 7 -17 15 -32 15 -29 22 -13 9 20 -5 14 -24 23 -24
12z"/>
<path d="M4995 4730 c3 -5 8 -10 11 -10 2 0 4 5 4 10 0 6 -5 10 -11 10 -5 0
-7 -4 -4 -10z"/>
<path d="M5016 4713 c-6 -14 -5 -15 5 -6 7 7 10 15 7 18 -3 3 -9 -2 -12 -12z"/>
<path d="M4998 4683 c7 -3 16 -2 19 1 4 3 -2 6 -13 5 -11 0 -14 -3 -6 -6z"/>
<path d="M5206 4555 c4 -8 10 -15 15 -15 4 0 6 7 3 15 -4 8 -10 15 -15 15 -4
0 -6 -7 -3 -15z"/>
<path d="M5850 4291 c0 -6 4 -13 10 -16 6 -3 7 1 4 9 -7 18 -14 21 -14 7z"/>
<path d="M5560 4229 c7 -11 14 -19 16 -16 7 7 -7 37 -17 37 -6 0 -5 -9 1 -21z"/>
<path d="M5495 4195 c4 -11 8 -26 8 -32 0 -15 7 -16 22 -5 7 4 1 17 -14 32
-20 21 -23 22 -16 5z"/>
<path d="M4877 4109 c7 -7 15 -10 18 -7 3 3 -2 9 -12 12 -14 6 -15 5 -6 -5z"/>
<path d="M5746 4101 c-3 -4 1 -17 9 -27 8 -10 15 -14 15 -7 0 6 -5 15 -10 18
-6 4 -8 11 -5 16 4 5 4 9 1 9 -3 0 -7 -4 -10 -9z"/>
<path d="M4970 4086 c7 -7 13 -7 20 0 6 6 3 10 -10 10 -13 0 -16 -4 -10 -10z"/>
<path d="M5563 4065 c-3 -9 -3 -18 -1 -21 3 -3 8 4 11 16 6 23 -1 27 -10 5z"/>
<path d="M5696 4025 c4 -8 10 -15 15 -15 4 0 6 7 3 15 -4 8 -10 15 -15 15 -4
0 -6 -7 -3 -15z"/>
<path d="M3165 5750 c3 -5 8 -10 11 -10 2 0 4 5 4 10 0 6 -5 10 -11 10 -5 0
-7 -4 -4 -10z"/>
<path d="M3053 5680 c-11 -16 -10 -18 2 -14 8 4 15 12 15 20 0 19 -3 18 -17
-6z"/>
<path d="M3030 5605 c-14 -16 -10 -18 14 -9 9 3 16 10 16 15 0 14 -16 11 -30
-6z"/>
<path d="M2760 4816 c0 -2 7 -6 15 -10 8 -3 15 -1 15 4 0 6 -7 10 -15 10 -8 0
-15 -2 -15 -4z"/>
<path d="M5750 3221 c0 -5 -3 -18 -6 -28 -5 -16 -4 -16 10 1 18 23 20 36 6 36
-5 0 -10 -4 -10 -9z"/>
<path d="M6153 5319 c-36 -23 -40 -39 -18 -72 8 -12 29 -85 47 -162 26 -114
32 -162 32 -257 l1 -116 28 56 c62 124 72 167 72 307 0 156 -18 226 -65 250
-39 20 -59 19 -97 -6z"/>
<path d="M6366 2697 c2 -7 35 -28 72 -46 68 -34 211 -138 269 -197 98 -101
427 -293 558 -327 39 -10 102 -34 141 -53 39 -19 74 -34 77 -34 3 0 61 -27
129 -60 90 -43 137 -60 172 -62 27 -2 50 2 52 7 5 15 -106 79 -294 171 -159
77 -418 220 -442 244 -12 12 -32 25 -45 30 -54 21 -21 26 52 9 42 -10 79 -17
81 -14 5 5 -363 183 -448 217 -122 48 -353 128 -371 128 -5 0 -6 -6 -3 -13z"/>
<path d="M6440 2550 c0 -13 7 -20 20 -20 13 0 17 5 14 14 -9 24 -34 28 -34 6z"/>
<path d="M6450 2422 c0 -26 3 -29 24 -25 20 4 23 9 17 27 -5 11 -16 22 -25 24
-12 3 -16 -4 -16 -26z"/>
<path d="M6447 2313 c-4 -3 -7 -20 -7 -37 l0 -31 19 30 c18 29 18 45 2 45 -4
0 -11 -3 -14 -7z"/>
<path d="M6516 2282 c-3 -15 -10 -72 -16 -127 -5 -55 -17 -127 -26 -160 -8
-33 -20 -89 -25 -124 -10 -71 -20 -108 -54 -191 -25 -60 -40 -167 -27 -188 13
-19 20 -6 81 138 30 69 58 131 65 139 6 8 12 64 13 135 1 89 8 142 24 201 12
44 24 103 26 131 5 50 4 52 -26 62 -28 10 -30 9 -35 -16z"/>
<path d="M6407 2028 c-33 -143 -43 -228 -28 -228 6 0 11 2 11 4 0 1 11 32 24
68 18 51 24 89 25 167 1 55 0 101 -2 101 -2 0 -15 -51 -30 -112z"/>
<path d="M6631 2123 c-5 -10 -12 -45 -16 -78 -4 -35 -19 -86 -36 -121 -26 -51
-32 -79 -39 -175 -5 -63 -16 -138 -24 -166 -9 -29 -22 -75 -30 -102 -7 -27
-17 -54 -21 -60 -6 -11 15 -71 25 -71 3 0 17 29 32 63 30 67 66 206 78 302 5
33 13 91 19 129 8 47 8 73 1 80 -5 5 -10 19 -10 29 0 16 2 17 15 7 19 -15 17
-17 44 42 26 57 26 86 2 116 -23 27 -28 27 -40 5z"/>
<path d="M7040 2127 c0 -16 32 -47 48 -47 6 0 15 -7 20 -16 5 -8 37 -34 72
-57 68 -45 73 -54 74 -137 1 -42 6 -59 23 -76 l22 -22 16 35 c10 19 18 54 19
77 2 33 6 42 22 44 20 3 20 -3 22 -129 1 -74 6 -135 11 -139 6 -3 14 -17 19
-30 8 -22 11 -20 31 35 20 54 21 66 11 115 -6 30 -10 75 -8 100 3 42 5 45 35
48 22 2 35 -3 45 -16 7 -10 23 -24 35 -30 17 -9 22 -9 27 4 9 22 9 22 -24 29
-16 4 -44 16 -62 28 -30 20 -108 60 -213 108 -22 10 -70 27 -106 39 -36 11
-75 27 -85 35 -24 18 -54 19 -54 2z"/>
<path d="M6996 2026 c10 -8 21 -12 24 -10 5 6 -21 24 -34 24 -6 0 -1 -6 10
-14z"/>
<path d="M7124 1939 c3 -19 12 -40 20 -47 11 -11 17 -8 34 20 24 37 21 43 -27
53 l-34 7 7 -33z"/>
<path d="M6754 1892 c10 -12 23 -19 28 -16 11 7 11 7 -22 24 -25 13 -25 13 -6
-8z"/>
<path d="M7870 1900 c0 -5 5 -10 10 -10 6 0 10 5 10 10 0 6 -4 10 -10 10 -5 0
-10 -4 -10 -10z"/>
<path d="M7863 1845 c33 -29 40 -30 56 -11 10 12 6 17 -26 25 -56 16 -61 13
-30 -14z"/>
<path d="M6720 1849 c0 -5 5 -7 10 -4 6 3 10 8 10 11 0 2 -4 4 -10 4 -5 0 -10
-5 -10 -11z"/>
<path d="M7500 1805 c-8 -23 -10 -55 -5 -84 4 -25 10 -79 13 -119 7 -70 21
-97 47 -89 13 5 33 73 34 115 2 55 -30 165 -54 191 l-23 23 -12 -37z"/>
<path d="M7680 1820 c0 -5 7 -10 16 -10 8 0 12 5 9 10 -3 6 -10 10 -16 10 -5
0 -9 -4 -9 -10z"/>
<path d="M7993 1817 c5 -15 37 -22 37 -9 0 5 -9 12 -21 15 -13 3 -19 1 -16 -6z"/>
<path d="M6690 1785 c-5 -14 -10 -32 -10 -39 0 -7 -9 -39 -20 -72 -11 -32 -30
-113 -41 -179 -11 -66 -33 -163 -49 -215 -16 -52 -38 -160 -50 -240 -11 -80
-23 -160 -26 -177 -5 -32 -4 -33 27 -29 18 2 38 11 45 21 25 34 46 130 65 295
19 169 65 416 100 529 20 67 25 121 10 121 -5 0 -16 3 -25 6 -11 4 -19 -2 -26
-21z"/>
<path d="M2735 1760 c-3 -5 -4 -14 -1 -18 3 -5 -2 -21 -10 -37 -25 -48 -8 -39
20 11 14 25 26 48 26 50 0 9 -29 3 -35 -6z"/>
<path d="M7998 1740 c2 -16 16 -41 31 -56 l26 -27 3 34 c3 27 -2 38 -25 56
-36 30 -40 29 -35 -7z"/>
<path d="M7653 1738 c-20 -25 -22 -64 -10 -172 9 -79 17 -112 28 -119 51 -32
72 45 53 189 -7 54 -13 102 -14 107 0 12 -47 8 -57 -5z"/>
<path d="M2613 1718 c-13 -6 -23 -15 -23 -20 0 -12 44 -10 58 4 27 27 6 36
-35 16z"/>
<path d="M6831 1683 c-15 -52 -14 -74 5 -94 9 -10 14 -25 11 -34 -8 -19 -27
-20 -27 0 0 8 -4 15 -9 15 -29 0 -98 -322 -124 -577 -13 -132 -13 -133 7 -133
33 0 44 12 71 78 20 50 29 99 41 230 8 92 21 200 29 241 8 40 15 85 15 100 0
14 7 44 14 66 25 72 26 105 5 126 -10 10 -21 19 -24 19 -2 0 -9 -17 -14 -37z"/>
<path d="M2591 1646 c-32 -18 -71 -84 -71 -121 1 -30 1 -30 55 28 36 38 55 66
55 82 0 28 -5 30 -39 11z"/>
<path d="M2419 1573 c-32 -27 -89 -133 -89 -165 0 -46 76 7 108 74 11 24 24
60 30 81 13 46 -2 49 -49 10z"/>
<path d="M6939 1473 c-6 -16 -20 -75 -30 -133 -11 -58 -21 -112 -24 -120 -2
-8 -7 -49 -10 -90 -3 -41 -9 -112 -13 -157 l-8 -82 28 2 c49 4 83 104 98 292
6 72 15 164 20 205 6 47 5 76 -1 78 -5 2 -16 10 -23 18 -20 20 -25 18 -37 -13z"/>
<path d="M2232 1443 c-59 -57 -93 -123 -97 -187 l-3 -54 27 31 c52 61 101 138
116 180 28 79 16 87 -43 30z"/>
<path d="M0 1385 c0 -45 4 -65 13 -65 26 0 94 26 110 41 15 15 14 18 -9 39
-13 13 -24 20 -24 16 0 -4 -10 2 -22 14 -12 11 -32 20 -45 20 -22 0 -23 -4
-23 -65z"/>
<path d="M7130 1429 c0 -5 -5 -7 -10 -4 -6 3 -15 -6 -21 -22 -20 -51 -50 -236
-56 -349 l-6 -111 31 0 c25 0 33 6 46 36 27 63 36 116 46 268 5 81 10 153 10
158 0 6 -9 16 -20 23 -13 8 -20 8 -20 1z"/>
<path d="M7265 1358 c-20 -60 -37 -158 -45 -265 -5 -69 -9 -127 -7 -129 16
-13 46 -11 60 4 30 33 57 166 57 282 0 103 -1 108 -22 114 -33 8 -38 8 -43 -6z"/>
<path d="M7431 1312 c-23 -60 -32 -113 -38 -224 l-6 -117 28 -7 c33 -8 38 -1
65 85 15 46 20 91 20 166 l0 103 -29 10 c-27 9 -30 8 -40 -16z"/>
<path d="M1385 1299 c-33 -10 -85 -23 -115 -28 -48 -8 -62 -16 -112 -66 -31
-31 -64 -67 -72 -79 -21 -33 -117 -48 -257 -40 -63 4 -166 5 -229 3 -162 -4
-228 -3 -282 6 -37 6 -63 3 -115 -13 -63 -20 -124 -30 -180 -31 -22 -1 -23 -4
-23 -111 l0 -109 37 -7 c106 -18 169 -37 203 -62 33 -23 39 -34 45 -76 3 -27
9 -61 12 -77 4 -24 0 -31 -28 -48 -33 -20 -33 -21 -9 -22 l25 -1 -25 -8 c-17
-6 -1 -7 45 -5 143 7 195 25 195 65 0 42 218 51 296 11 36 -17 46 -19 73 -8
17 6 30 16 28 21 -2 5 7 19 20 32 13 13 23 31 23 41 0 28 51 80 95 98 22 9 49
20 60 25 29 12 225 68 255 72 19 2 28 12 37 39 24 75 110 204 177 265 62 57
85 93 52 81 -8 -3 -16 -3 -18 1 -8 17 -89 52 -119 51 -19 0 -61 -9 -94 -20z
m-1045 -683 c0 -3 -4 -8 -10 -11 -5 -3 -10 -1 -10 4 0 6 5 11 10 11 6 0 10 -2
10 -4z m94 -27 c-3 -5 -10 -7 -15 -3 -5 3 -7 10 -3 15 3 5 10 7 15 3 5 -3 7
-10 3 -15z"/>
<path d="M2021 1274 c-23 -26 -41 -56 -41 -67 0 -29 -19 -84 -48 -141 -16 -31
-20 -47 -11 -44 13 4 54 68 43 68 -3 0 2 7 10 16 9 8 28 36 43 62 15 26 37 60
50 75 26 32 31 77 9 77 -8 0 -33 -21 -55 -46z"/>
<path d="M7600 1284 c-26 -66 -40 -262 -24 -322 5 -18 9 -20 20 -11 11 9 14 7
15 -7 0 -11 14 19 30 66 24 66 32 109 36 190 l6 105 -38 0 c-29 0 -39 -5 -45
-21z"/>
<path d="M2387 1273 c-4 -3 -7 -16 -6 -27 0 -19 1 -19 10 3 10 24 8 36 -4 24z"/>
<path d="M1881 1186 c-13 -14 -39 -62 -57 -108 -83 -200 -95 -231 -91 -242 4
-12 87 157 87 178 0 8 7 19 15 26 8 7 15 17 15 22 0 5 16 37 35 69 19 33 35
64 35 70 0 16 -16 10 -39 -15z"/>
<path d="M2337 1172 c-28 -29 -36 -57 -15 -50 18 6 51 54 47 67 -3 7 -16 0
-32 -17z"/>
<path d="M8706 1061 c-3 -5 -10 -53 -16 -106 -5 -53 -12 -106 -15 -118 -3 -12
-7 -51 -10 -87 -9 -116 -15 -163 -35 -275 -26 -145 -40 -214 -51 -249 -5 -16
-9 -45 -9 -65 -1 -20 -7 -64 -14 -98 l-14 -63 63 0 c71 0 75 4 75 73 0 23 7
69 14 102 8 33 12 63 10 67 -3 5 2 43 10 86 14 72 27 206 41 432 3 52 9 110
12 129 4 26 3 33 -8 29 -8 -3 -14 -12 -14 -20 0 -8 -5 -22 -11 -29 -7 -8 -15
-29 -19 -46 -3 -18 -11 -33 -16 -33 -12 0 -12 43 0 55 11 13 41 116 41 144 0
12 -5 21 -10 21 -6 0 -8 10 -4 24 6 24 -10 45 -20 27z"/>
<path d="M1890 960 c-6 -12 -9 -24 -7 -27 3 -2 11 5 17 17 6 12 9 24 7 27 -3
2 -11 -5 -17 -17z"/>
<path d="M1650 899 c-6 -11 -10 -25 -7 -32 2 -6 9 3 15 21 12 36 8 42 -8 11z"/>
<path d="M8848 625 c-8 -24 -17 -90 -23 -170 -6 -78 -23 -182 -37 -220 -6 -16
-14 -63 -18 -102 -5 -40 -11 -86 -15 -103 l-7 -30 56 0 56 0 0 76 c0 41 -5 85
-11 96 -9 16 -9 38 0 87 13 69 12 402 -1 366z"/>
<path d="M1320 354 c0 -8 5 -12 10 -9 6 4 8 11 5 16 -9 14 -15 11 -15 -7z"/>
<path d="M2295 10 c-3 -5 -1 -10 4 -10 6 0 11 5 11 10 0 6 -2 10 -4 10 -3 0
-8 -4 -11 -10z"/>
</g>
</svg>
